<?xml version="1.0" encoding="UTF-8"?>
<svg id="Layer_1" xmlns="http://www.w3.org/2000/svg" version="1.1" viewBox="0 0 194.79 183.13">
    <!-- Generator: Adobe Illustrator 30.0.0, SVG Export Plug-In . SVG Version: 2.1.1 Build 123)  -->
    <defs>
        <style>
            .st0 {
            fill: #f7941d;
            }

            .st1 {
            fill: #00a651;
            }

            .st2 {
            fill: #27aae1;
            }

            .st3 {
            fill: #8c8c8c;
            }

            .st4 {
            fill: #ed1c24;
            }

            .st5 {
            fill: #b300d4;
            }
        </style>
    </defs>
    <path class="st3" d="M0,88.22c12.14,0,13.85-6.67,13.85-12.66,0-4.79-.68-9.58-1.37-14.37s-1.37-9.41-1.37-14.2c0-15.73,10.26-22.41,24.8-22.41h3.59v9.41h-3.08c-10.09,0-13.51,5.47-13.51,14.71,0,3.93.51,8.04,1.2,12.14.68,4.28,1.2,8.38,1.2,13,.17,10.95-4.62,16.42-12.31,18.47v.34c7.7,1.88,12.49,7.7,12.31,18.64,0,4.62-.51,8.9-1.2,13-.68,4.28-1.2,8.21-1.2,12.31,0,9.58,3.93,14.88,13.51,14.88h3.08v9.41h-3.59c-14.2,0-24.8-6.16-24.8-23.43,0-4.62.68-9.41,1.37-14.03.68-4.62,1.37-9.24,1.37-13.85,0-5.3-1.71-12.66-13.85-12.66v-8.72.02Z"/>
    <path class="st3" d="M194.79,97.28c-12.14,0-13.85,6.67-13.85,12.66,0,4.79.68,9.58,1.37,14.37s1.37,9.41,1.37,14.2c0,15.73-10.26,22.41-24.8,22.41h-3.59v-9.41h3.08c10.09,0,13.51-5.47,13.51-14.71,0-3.93-.51-8.04-1.2-12.14-.68-4.28-1.2-8.38-1.2-13-.17-10.95,4.62-16.42,12.31-18.47v-.34c-7.7-1.88-12.49-7.7-12.31-18.64,0-4.62.51-8.9,1.2-13,.68-4.28,1.2-8.21,1.2-12.31,0-9.58-3.93-14.88-13.51-14.88h-3.08v-9.41h3.59c14.2,0,24.8,6.16,24.8,23.43,0,4.62-.68,9.41-1.37,14.03-.68,4.62-1.37,9.24-1.37,13.85,0,5.3,1.71,12.66,13.85,12.66v8.72-.02Z"/>
    <rect class="st2" x="50.18" y="22.33" width="92.62" height="14.32" rx="3.47" ry="3.47"/>
    <rect class="st0" x="33.26" y="43.91" width="122.99" height="14.32" rx="3.47" ry="3.47"/>
    <rect class="st1" x="54.74" y="64.3" width="92.62" height="14.32" rx="3.47" ry="3.47"/>
    <rect class="st4" x="61.68" y="85.56" width="92.62" height="14.32" rx="3.47" ry="3.47"/>
    <rect class="st5" x="41.72" y="107.9" width="68.55" height="14.32" rx="3.47" ry="3.47"/>
    <rect class="st0" x="38.9" y="130.68" width="106.94" height="14.32" rx="3.47" ry="3.47"/>
    <rect class="st4" x="47.36" y="150.63" width="84.6" height="14.32" rx="3.47" ry="3.47"/>
    <rect class="st5" x="34.02" width="92.62" height="14.32" rx="3.47" ry="3.47"/>
    <rect class="st1" x="62.98" y="168.81" width="86.76" height="14.32" rx="3.47" ry="3.47"/>
</svg>